<svg width="35" height="35" viewBox="0 0 35 35" fill="none" xmlns="http://www.w3.org/2000/svg">
<path d="M24.1063 16.1291L22.5604 14.5833L15.4438 21.7L12.3521 18.6083L10.8062 20.1541L15.4438 24.7916L24.1063 16.1291V16.1291ZM27.7083 4.37498H26.25V1.45831H23.3333V4.37498H11.6667V1.45831H8.75V4.37498H7.29167C5.67292 4.37498 4.38958 5.68748 4.38958 7.29165L4.375 27.7083C4.375 28.4819 4.68229 29.2237 5.22927 29.7707C5.77625 30.3177 6.51812 30.625 7.29167 30.625H27.7083C29.3125 30.625 30.625 29.3125 30.625 27.7083V7.29165C30.625 5.68748 29.3125 4.37498 27.7083 4.37498ZM27.7083 27.7083H7.29167V11.6666H27.7083V27.7083Z" fill="#777777"/>
</svg>
