<svg width="45" height="45" viewBox="0 0 45 45" fill="none" xmlns="http://www.w3.org/2000/svg">
<path d="M38.6719 4.92188H6.32812C5.55029 4.92188 4.92188 5.55029 4.92188 6.32812V38.6719C4.92188 39.4497 5.55029 40.0781 6.32812 40.0781H38.6719C39.4497 40.0781 40.0781 39.4497 40.0781 38.6719V6.32812C40.0781 5.55029 39.4497 4.92188 38.6719 4.92188ZM29.8389 30.6562C28.0547 32.2998 25.6201 33.2666 22.7153 33.2666C18.5098 33.2666 14.8711 30.854 13.1001 27.3384C12.3455 25.8372 11.9527 24.1802 11.9531 22.5C11.9531 20.7598 12.3706 19.1162 13.1001 17.6616C14.8711 14.1416 18.5098 11.729 22.7153 11.729C25.6157 11.729 28.0503 12.7969 29.918 14.5327L26.833 17.6221C25.7168 16.5542 24.2974 16.0137 22.7197 16.0137C19.916 16.0137 17.543 17.9077 16.6948 20.4521C16.4795 21.0981 16.3564 21.7881 16.3564 22.5C16.3564 23.2119 16.4795 23.9019 16.6948 24.5479C17.543 27.0923 19.916 28.9863 22.7153 28.9863C24.1655 28.9863 25.396 28.604 26.3584 27.958C27.501 27.1934 28.2568 26.0552 28.5073 24.7061H22.7153V20.54H32.8535C32.981 21.2476 33.0469 21.9814 33.0469 22.7417C33.0469 26.0244 31.8735 28.7798 29.8389 30.6562V30.6562Z" fill="#777777"/>
</svg>
