<svg width="35" height="35" viewBox="0 0 35 35" fill="none" xmlns="http://www.w3.org/2000/svg">
<path d="M17.5 14.5833C19.1785 14.5833 20.4167 13.3467 20.4167 11.6667C20.4167 9.98667 19.1785 8.75 17.5 8.75C15.8229 8.75 14.5833 9.98667 14.5833 11.6667C14.5833 13.3467 15.8229 14.5833 17.5 14.5833ZM17.5 16.0417C14.2785 16.0417 11.6667 18.3925 11.6667 21.2917V21.8546H23.3333V21.2917C23.3333 18.3925 20.7215 16.0417 17.5 16.0417Z" fill="#777777"/>
<path d="M27.7083 2.91669H7.29167C5.68312 2.91669 4.375 4.22481 4.375 5.83335V24.7917C4.375 26.4002 5.68312 27.7084 7.29167 27.7084H13.125L17.5 32.0834L21.875 27.7084H27.7083C29.3169 27.7084 30.625 26.4002 30.625 24.7917V5.83335C30.625 4.22481 29.3169 2.91669 27.7083 2.91669ZM20.4167 24.7917L17.5 27.7084L14.5833 24.7917H7.29167V5.83335H27.7083L27.7113 24.7917H20.4167Z" fill="#777777"/>
</svg>
