<svg width="35" height="35" viewBox="0 0 35 35" fill="none" xmlns="http://www.w3.org/2000/svg">
<path d="M23.3333 2.91669H11.6667C6.84103 2.91669 2.91666 6.84106 2.91666 11.6667V30.625C2.91666 31.0118 3.0703 31.3827 3.34379 31.6562C3.61728 31.9297 3.98822 32.0834 4.37499 32.0834H23.3333C28.1589 32.0834 32.0833 28.159 32.0833 23.3334V11.6667C32.0833 6.84106 28.1589 2.91669 23.3333 2.91669ZM29.1667 23.3334C29.1667 26.5504 26.5504 29.1667 23.3333 29.1667H5.83332V11.6667C5.83332 8.4496 8.44957 5.83335 11.6667 5.83335H23.3333C26.5504 5.83335 29.1667 8.4496 29.1667 11.6667V23.3334Z" fill="#777777"/>
<path d="M18.9583 10.2083H16.0417V16.0416H10.2083V18.9583H16.0417V24.7916H18.9583V18.9583H24.7917V16.0416H18.9583V10.2083Z" fill="#777777"/>
</svg>
