<svg width="50" height="50" viewBox="0 0 50 50" fill="none" xmlns="http://www.w3.org/2000/svg">
<path d="M25 4.16669C36.5062 4.16669 45.8333 13.4938 45.8333 25C45.8333 36.5063 36.5062 45.8334 25 45.8334C13.4937 45.8334 4.16666 36.5063 4.16666 25C4.16666 13.4938 13.4937 4.16669 25 4.16669ZM25 7.29169C20.3034 7.29169 15.7993 9.15738 12.4783 12.4783C9.15735 15.7993 7.29166 20.3035 7.29166 25C7.29166 29.6966 9.15735 34.2007 12.4783 37.5217C15.7993 40.8427 20.3034 42.7084 25 42.7084C29.6965 42.7084 34.2007 40.8427 37.5217 37.5217C40.8426 34.2007 42.7083 29.6966 42.7083 25C42.7083 20.3035 40.8426 15.7993 37.5217 12.4783C34.2007 9.15738 29.6965 7.29169 25 7.29169V7.29169ZM25 14.5834C25.4144 14.5834 25.8118 14.748 26.1048 15.041C26.3979 15.334 26.5625 15.7315 26.5625 16.1459V23.4375H33.8542C34.2686 23.4375 34.666 23.6021 34.959 23.8952C35.252 24.1882 35.4167 24.5856 35.4167 25C35.4167 25.4144 35.252 25.8118 34.959 26.1049C34.666 26.3979 34.2686 26.5625 33.8542 26.5625H26.5625V33.8542C26.5625 34.2686 26.3979 34.666 26.1048 34.959C25.8118 35.2521 25.4144 35.4167 25 35.4167C24.5856 35.4167 24.1882 35.2521 23.8951 34.959C23.6021 34.666 23.4375 34.2686 23.4375 33.8542V26.5625H16.1458C15.7314 26.5625 15.334 26.3979 15.041 26.1049C14.7479 25.8118 14.5833 25.4144 14.5833 25C14.5833 24.5856 14.7479 24.1882 15.041 23.8952C15.334 23.6021 15.7314 23.4375 16.1458 23.4375H23.4375V16.1459C23.4375 15.7315 23.6021 15.334 23.8951 15.041C24.1882 14.748 24.5856 14.5834 25 14.5834V14.5834Z" fill="#777777"/>
</svg>
