<svg width="30" height="30" viewBox="0 0 30 30" fill="none" xmlns="http://www.w3.org/2000/svg">
<path d="M15 8.31755C16.0121 9.11198 16.8302 10.1262 17.3924 11.2836C17.9546 12.4409 18.2461 13.7109 18.245 14.9975C18.2457 16.2838 17.954 17.5533 17.3918 18.7102C16.8296 19.867 16.0117 20.8809 15 21.675C13.9881 20.8807 13.17 19.8667 12.6079 18.7096C12.0457 17.5525 11.754 16.2827 11.755 14.9963C11.754 13.7099 12.0457 12.4401 12.6079 11.283C13.17 10.1259 13.9881 9.11185 15 8.31755V8.31755ZM13.9125 7.59005C12.8412 8.50451 11.9812 9.6407 11.392 10.9201C10.8028 12.1995 10.4985 13.5915 10.5 15C10.4985 16.408 10.8027 17.7994 11.3914 19.0783C11.9801 20.3572 12.8394 21.4931 13.91 22.4075C12.6167 23.1335 11.1559 23.5084 9.6729 23.4949C8.18985 23.4814 6.73617 23.0799 5.45635 22.3305C4.17653 21.581 3.11516 20.5096 2.37773 19.2229C1.6403 17.9361 1.25249 16.4787 1.25287 14.9956C1.25324 13.5125 1.64178 12.0553 2.37987 10.7689C3.11795 9.48248 4.17987 8.41165 5.46006 7.66284C6.74026 6.91404 8.19414 6.51333 9.6772 6.50056C11.1603 6.48779 12.6208 6.8634 13.9137 7.59005H13.9125ZM16.09 22.4075C17.1605 21.4931 18.0198 20.3572 18.6086 19.0783C19.1973 17.7994 19.5014 16.408 19.5 15C19.5015 13.5915 19.1971 12.1995 18.6079 10.9201C18.0188 9.6407 17.1588 8.50451 16.0875 7.59005C17.3804 6.8634 18.8409 6.48779 20.324 6.50056C21.8071 6.51333 23.2609 6.91404 24.5411 7.66284C25.8213 8.41165 26.8832 9.48248 27.6213 10.7689C28.3594 12.0553 28.748 13.5125 28.7483 14.9956C28.7487 16.4787 28.3609 17.9361 27.6235 19.2229C26.886 20.5096 25.8247 21.581 24.5448 22.3305C23.265 23.0799 21.8113 23.4814 20.3283 23.4949C18.8453 23.5084 17.3845 23.1335 16.0912 22.4075H16.09Z" fill="#0A0909"/>
</svg>
