<svg width="20" height="20" viewBox="0 0 20 20" fill="none" xmlns="http://www.w3.org/2000/svg">
<path d="M9.91892 4.98407C9.42446 4.98407 8.94111 5.13069 8.52999 5.4054C8.11887 5.6801 7.79844 6.07055 7.60922 6.52736C7.42 6.98418 7.37049 7.48684 7.46695 7.9718C7.56342 8.45675 7.80152 8.90221 8.15115 9.25184C8.50078 9.60147 8.94624 9.83957 9.43119 9.93603C9.91614 10.0325 10.4188 9.98299 10.8756 9.79377C11.3324 9.60455 11.7229 9.28412 11.9976 8.873C12.2723 8.46187 12.4189 7.97852 12.4189 7.48407C12.4182 6.82126 12.1545 6.18581 11.6858 5.71714C11.2172 5.24846 10.5817 4.98482 9.91892 4.98407V4.98407ZM9.91892 8.73407C9.67169 8.73407 9.43001 8.66076 9.22445 8.52341C9.01889 8.38605 8.85868 8.19083 8.76407 7.96242C8.66946 7.73402 8.6447 7.48268 8.69293 7.24021C8.74117 6.99773 8.86022 6.775 9.03503 6.60019C9.20985 6.42537 9.43258 6.30632 9.67505 6.25809C9.91753 6.20986 10.1689 6.23461 10.3973 6.32922C10.6257 6.42383 10.8209 6.58405 10.9583 6.78961C11.0956 6.99517 11.1689 7.23684 11.1689 7.48407C11.1685 7.81547 11.0367 8.13319 10.8024 8.36753C10.568 8.60187 10.2503 8.73369 9.91892 8.73407V8.73407Z" fill="white"/>
<path d="M14.7229 2.6764C13.5351 1.48891 11.9496 0.7835 10.2723 0.696302C8.59496 0.609105 6.94481 1.1463 5.64029 2.20422C4.33578 3.26214 3.46937 4.76577 3.2083 6.42493C2.94722 8.08408 3.30999 9.78113 4.22657 11.1885L8.9495 18.4391C9.0546 18.6004 9.19831 18.7329 9.36759 18.8247C9.53688 18.9165 9.72639 18.9645 9.91894 18.9645C10.1115 18.9645 10.301 18.9165 10.4703 18.8247C10.6396 18.7329 10.7833 18.6004 10.8884 18.4391L15.6115 11.1885C16.4619 9.88296 16.8378 8.32471 16.676 6.77497C16.5143 5.22523 15.8247 3.77819 14.7229 2.6764V2.6764ZM14.5641 10.5062L9.91896 17.6371L5.27376 10.5062C3.85189 8.32347 4.15685 5.40237 5.99888 3.56026C6.51366 3.04546 7.12481 2.6371 7.79742 2.35849C8.47003 2.07988 9.19093 1.93648 9.91896 1.93648C10.647 1.93648 11.3679 2.07988 12.0405 2.35849C12.7131 2.6371 13.3242 3.04546 13.839 3.56026C15.6811 5.40237 15.986 8.32347 14.5641 10.5062Z" fill="white"/>
</svg>
