<svg width="20" height="20" viewBox="0 0 20 20" fill="none" xmlns="http://www.w3.org/2000/svg">
<path d="M10 10.8334C11.3807 10.8334 12.5 9.71409 12.5 8.33337C12.5 6.95266 11.3807 5.83337 10 5.83337C8.61929 5.83337 7.5 6.95266 7.5 8.33337C7.5 9.71409 8.61929 10.8334 10 10.8334Z" stroke="white" stroke-width="1.66667" stroke-linecap="round" stroke-linejoin="round"/>
<path d="M10 1.66669C8.2319 1.66669 6.53621 2.36907 5.28596 3.61931C4.03572 4.86955 3.33334 6.56524 3.33334 8.33335C3.33334 9.91002 3.66834 10.9417 4.58334 12.0834L10 18.3334L15.4167 12.0834C16.3317 10.9417 16.6667 9.91002 16.6667 8.33335C16.6667 6.56524 15.9643 4.86955 14.7141 3.61931C13.4638 2.36907 11.7681 1.66669 10 1.66669V1.66669Z" stroke="white" stroke-width="1.66667" stroke-linecap="round" stroke-linejoin="round"/>
</svg>
